HIERARCHY
ROOT Hips
{
	OFFSET 56.877701 -32.693596 43.373703
	CHANNELS 6 Xposition Yposition Zposition Zrotation Xrotation Yrotation
	JOINT Chest
	{
		OFFSET -0.779999 1.005800 5.403099
		CHANNELS 6 Xposition Yposition Zposition Zrotation Xrotation Yrotation
		JOINT Chest2
		{
			OFFSET 0.000000 0.000000 4.236801
			CHANNELS 6 Xposition Yposition Zposition Zrotation Xrotation Yrotation
			JOINT Neck
			{
				OFFSET 0.000000 0.000000 9.874401
				CHANNELS 6 Xposition Yposition Zposition Zrotation Xrotation Yrotation
				JOINT Head
				{
					OFFSET 0.000000 0.000002 2.173893
					CHANNELS 6 Xposition Yposition Zposition Zrotation Xrotation Yrotation
					End Site
					{
						OFFSET 0.000000 0.000000 6.508102
					}
				}
			}
			JOINT LeftCollar
			{
				OFFSET 2.681599 -0.377600 5.432499
				CHANNELS 6 Xposition Yposition Zposition Zrotation Xrotation Yrotation
				JOINT LeftShoulder
				{
					OFFSET 5.161499 0.000000 0.000000
					CHANNELS 6 Xposition Yposition Zposition Zrotation Xrotation Yrotation
					JOINT LeftElbow
					{
						OFFSET 0.000000 0.000000 -10.869099
						CHANNELS 6 Xposition Yposition Zposition Zrotation Xrotation Yrotation
						JOINT LeftWrist
						{
							OFFSET 0.000000 0.000000 -13.344799
							CHANNELS 6 Xposition Yposition Zposition Zrotation Xrotation Yrotation
							End Site
							{
								OFFSET 0.000000 0.000000 -2.173901
							}
						}
					}
				}
			}
			JOINT RightCollar
			{
				OFFSET -2.381901 -1.419600 6.136600
				CHANNELS 6 Xposition Yposition Zposition Zrotation Xrotation Yrotation
				JOINT RightShoulder
				{
					OFFSET -4.550499 0.000000 0.000000
					CHANNELS 6 Xposition Yposition Zposition Zrotation Xrotation Yrotation
					JOINT RightElbow
					{
						OFFSET 0.000000 0.000000 -11.106499
						CHANNELS 6 Xposition Yposition Zposition Zrotation Xrotation Yrotation
						JOINT RightWrist
						{
							OFFSET 0.000000 0.000000 -12.874298
							CHANNELS 6 Xposition Yposition Zposition Zrotation Xrotation Yrotation
							End Site
							{
								OFFSET 0.000000 0.000000 -2.173901
							}
						}
					}
				}
			}
		}
	}
	JOINT LeftHip
	{
		OFFSET 2.431900 0.469601 -2.489399
		CHANNELS 6 Xposition Yposition Zposition Zrotation Xrotation Yrotation
		JOINT LeftKnee
		{
			OFFSET 0.000000 -0.000004 -18.200201
			CHANNELS 6 Xposition Yposition Zposition Zrotation Xrotation Yrotation
			JOINT LeftAnkle
			{
				OFFSET 0.000000 0.000000 -16.279900
				CHANNELS 6 Xposition Yposition Zposition Zrotation Xrotation Yrotation
				End Site
				{
					OFFSET 0.000000 -8.394100 0.000000
				}
			}
		}
	}
	JOINT RightHip
	{
		OFFSET -1.987999 -0.073502 -2.713001
		CHANNELS 6 Xposition Yposition Zposition Zrotation Xrotation Yrotation
		JOINT RightKnee
		{
			OFFSET 0.000000 -0.000004 -19.547802
			CHANNELS 6 Xposition Yposition Zposition Zrotation Xrotation Yrotation
			JOINT RightAnkle
			{
				OFFSET 0.000000 0.000000 -14.881199
				CHANNELS 6 Xposition Yposition Zposition Zrotation Xrotation Yrotation
				End Site
				{
					OFFSET 0.000000 -7.922699 0.000000
				}
			}
		}
	}
}
MOTION
Frames: 8
Frame Time: 0.041667
60.785198 -58.588299 18.497105 2276.016178 26.573860 -9.257994 -0.779996 1.005795 5.403092 27.880863 -6.742559 2.085374 -0.000004 -0.000001 4.236794 -5.126843 -6.803253 -0.887935 0.000013 0.000003 9.874410 -40.362368 -26.519487 12.620588 -0.000004 0.000010 2.173892 -3.585958 3.703689 -9.768508 2.681615 -0.377605 5.432508 16.225191 -3.518141 1.460895 5.161507 -0.000004 -0.000006 -153.545111 -206.152553 -287.687131 -0.000002 0.000004 -10.869096 -14.465210 4.096460 -4.536672 -0.000011 0.000008 -13.344798 33.358067 21.436161 -5.821110 -2.381892 -1.419601 6.136602 36.935050 20.032344 -10.083142 -4.550503 0.000003 -0.000006 -841.813930 -548.534022 -528.688935 0.000004 -0.000017 -11.106498 320.115995 -44.628507 291.987636 -0.000010 -0.000003 -12.874289 -750.988260 16.131423 -71.079928 2.431903 0.469603 -2.489408 155.612869 -44.020146 148.266714 -0.000022 -0.000002 -18.200195 -126.841148 11.358413 133.022319 0.000002 -0.000001 -16.279900 42.141963 15.381762 27.205784 -1.987996 -0.073503 -2.713012 -115.483336 -18.050947 -83.748617 -0.000006 -0.000010 -19.547791 -704.241735 183.468853 26.647464 0.000000 0.000003 -14.881195 505.177730 139.406661 145.250407
60.780502 -58.585598 18.492508 2275.998256 26.565577 -9.230647 -0.779997 1.005797 5.403102 27.900107 -6.762035 2.077737 -0.000002 0.000008 4.236800 -5.140882 -6.794816 -0.886072 -0.000006 -0.000003 9.874394 -40.446536 -26.547695 12.592704 0.000009 0.000002 2.173891 -3.553635 3.669929 -9.834077 2.681609 -0.377597 5.432504 16.164679 -3.454680 1.507382 5.161500 0.000006 -0.000003 -153.444612 -206.061616 -287.758738 -0.000003 0.000008 -10.869093 -14.342134 4.079312 -4.533447 -0.000001 0.000011 -13.344803 33.270138 21.490135 -5.811301 -2.381903 -1.419594 6.136597 36.993503 20.090764 -10.103088 -4.550498 -0.000001 -0.000003 -841.884964 -548.499762 -528.616644 0.000000 -0.000008 -11.106500 319.631188 -43.767613 291.640827 0.000003 -0.000005 -12.874293 -750.075856 16.169570 -71.158079 2.431903 0.469595 -2.489391 155.601217 -43.989396 148.278817 0.000005 -0.000008 -18.200203 -126.870614 11.328115 133.028876 0.000003 -0.000002 -16.279903 42.172590 15.387077 27.237162 -1.987992 -0.073505 -2.712996 -115.502474 -17.999256 -83.743631 -0.000003 0.000000 -19.547796 -704.205563 183.487718 26.654917 0.000002 0.000000 -14.881196 505.211334 139.420335 145.149074
60.776798 -58.583298 18.489008 2275.984705 26.559506 -9.206524 -0.780009 1.005808 5.403100 27.912577 -6.781298 2.069974 -0.000004 0.000001 4.236804 -5.150774 -6.786683 -0.884444 0.000000 -0.000003 9.874402 -40.524356 -26.576896 12.567820 -0.000006 0.000001 2.173896 -3.520564 3.639143 -9.897333 2.681599 -0.377604 5.432509 16.108103 -3.400742 1.551894 5.161509 0.000004 0.000009 -153.350028 -205.978793 -287.827232 0.000002 -0.000002 -10.869093 -14.236594 4.061414 -4.525768 -0.000001 -0.000002 -13.344801 33.196625 21.543359 -5.800112 -2.381896 -1.419596 6.136601 37.034628 20.139549 -10.103889 -4.550501 0.000000 0.000002 -841.935945 -548.461294 -528.563205 0.000008 -0.000001 -11.106503 319.403223 -43.335088 291.467941 0.000009 -0.000012 -12.874294 -749.636757 16.194421 -71.231510 2.431891 0.469611 -2.489395 155.590015 -43.961642 148.285907 0.000010 -0.000001 -18.200195 -126.893317 11.297933 133.032100 -0.000000 0.000004 -16.279896 42.199952 15.390966 27.266520 -1.988010 -0.073499 -2.712993 -115.517255 -17.955080 -83.740018 -0.000004 -0.000010 -19.547800 -704.176056 183.502922 26.660059 0.000003 0.000011 -14.881203 505.237890 139.431236 145.067767
60.773903 -58.581394 18.486406 2275.974869 26.555222 -9.185071 -0.779987 1.005799 5.403096 27.919211 -6.800643 2.061570 0.000013 0.000001 4.236802 -5.157025 -6.779443 -0.883048 0.000000 0.000000 9.874404 -40.592617 -26.604779 12.548549 -0.000003 0.000017 2.173898 -3.487599 3.614491 -9.956111 2.681599 -0.377601 5.432507 16.054406 -3.353888 1.596329 5.161503 -0.000006 -0.000001 -153.261399 -205.900588 -287.893840 0.000001 0.000005 -10.869096 -14.153431 4.044047 -4.514727 -0.000003 0.000010 -13.344804 33.137974 21.594577 -5.788632 -2.381903 -1.419592 6.136602 37.063062 20.180933 -10.093228 -4.550505 0.000001 -0.000005 -841.971899 -548.422444 -528.524081 0.000012 -0.000011 -11.106496 319.320961 -43.177847 291.400623 0.000007 -0.000002 -12.874290 -749.494635 16.220840 -71.302305 2.431911 0.469598 -2.489399 155.580303 -43.938658 148.290155 0.000005 -0.000004 -18.200195 -126.909040 11.268661 133.032359 -0.000001 -0.000006 -16.279900 42.222600 15.391510 27.297054 -1.987989 -0.073499 -2.713001 -115.527227 -17.918416 -83.737231 -0.000003 -0.000008 -19.547792 -704.152888 183.515203 26.662680 0.000006 -0.000002 -14.881203 505.257561 139.439295 145.008031
60.765396 -58.566696 18.478207 2275.966782 26.480556 -9.086596 -0.779997 1.005804 5.403098 27.831110 -6.892676 1.951880 0.000012 0.000003 4.236799 -5.124227 -6.772843 -0.878851 0.000004 0.000001 9.874402 -40.737536 -26.770880 12.605322 0.000003 0.000015 2.173890 -3.448784 3.732455 -10.091338 2.681600 -0.377603 5.432502 15.768294 -3.127680 2.006239 5.161490 -0.000008 0.000000 -152.757126 -205.378338 -288.416540 0.000000 0.000001 -10.869097 -13.998849 3.975879 -4.441387 -0.000010 -0.000004 -13.344798 33.538903 21.202534 -4.726499 -2.381897 -1.419588 6.136595 37.215799 20.390328 -10.142413 -4.550491 -0.000001 -0.000002 -842.167680 -548.329499 -528.317591 0.000004 -0.000017 -11.106502 319.237441 -43.152630 291.251670 0.000000 -0.000005 -12.874296 -749.528239 16.405351 -71.515578 2.431901 0.469606 -2.489393 155.484462 -43.895020 148.243177 -0.000005 0.000001 -18.200201 -126.941798 11.056396 133.011664 0.000002 -0.000005 -16.279898 42.288669 15.273952 27.644974 -1.987999 -0.073497 -2.712996 -115.557348 -17.782281 -83.676251 0.000000 -0.000005 -19.547792 -704.056173 183.577221 26.660687 -0.000003 0.000004 -14.881206 505.291931 139.440347 144.926465
60.760700 -58.554695 18.474407 2275.967438 26.416257 -9.052577 -0.780002 1.005802 5.403089 27.755789 -6.912779 1.883887 -0.000001 0.000002 4.236797 -5.090049 -6.781591 -0.878330 0.000000 -0.000001 9.874404 -40.635657 -26.838226 12.659716 0.000008 0.000000 2.173891 -3.585324 3.914074 -9.990430 2.681604 -0.377597 5.432498 15.702395 -3.066248 2.235840 5.161493 -0.000006 0.000008 -152.567383 -205.175058 -288.720511 0.000001 0.000008 -10.869095 -13.956416 3.957313 -4.421300 -0.000008 0.000006 -13.344793 33.393451 21.363691 -4.709308 -2.381901 -1.419598 6.136591 37.289046 20.466720 -10.231521 -4.550496 0.000010 -0.000008 -842.232867 -548.368131 -528.235082 0.000005 -0.000009 -11.106497 319.168893 -43.208733 291.183177 0.000006 0.000001 -12.874304 -749.534086 16.525738 -71.572603 2.431898 0.469606 -2.489407 155.414698 -43.905122 148.193153 -0.000005 0.000002 -18.200203 -126.930378 10.935579 133.000148 -0.000005 0.000004 -16.279900 42.321324 15.179185 27.876010 -1.988008 -0.073500 -2.713004 -115.570940 -17.751564 -83.630462 -0.000003 -0.000008 -19.547796 -704.020109 183.610798 26.657023 0.000008 0.000002 -14.881201 505.279035 139.402071 144.966366
60.753700 -58.539894 18.470512 2275.965252 26.349516 -9.031941 -0.779991 1.005804 5.403101 27.706591 -6.917283 1.832856 0.000013 0.000001 4.236789 -5.068232 -6.782432 -0.876796 -0.000008 -0.000004 9.874406 -40.495194 -26.921715 12.688970 0.000003 0.000011 2.173884 -3.733034 4.065804 -9.852386 2.681587 -0.377604 5.432500 15.687748 -3.026665 2.410582 5.161507 0.000006 0.000003 -152.436695 -205.078206 -288.990058 0.000001 0.000013 -10.869102 -13.866310 3.943186 -4.416746 -0.000008 0.000002 -13.344803 32.439598 22.385269 -5.833511 -2.381902 -1.419596 6.136597 37.321134 20.513191 -10.303623 -4.550506 0.000008 -0.000001 -842.245926 -548.417363 -528.186178 0.000003 -0.000015 -11.106509 319.072806 -43.276635 291.125393 0.000000 0.000002 -12.874302 -749.524524 16.677901 -71.658827 2.431911 0.469607 -2.489395 155.350207 -43.927440 148.146735 -0.000017 -0.000005 -18.200193 -126.900134 10.834017 132.992936 -0.000007 -0.000005 -16.279900 42.350868 15.085793 28.102998 -1.987988 -0.073496 -2.712996 -115.594272 -17.729614 -83.595361 -0.000006 -0.000002 -19.547787 -703.979456 183.648214 26.654839 0.000010 0.000013 -14.881205 505.265430 139.344329 144.991392
60.743996 -58.522697 18.466400 2275.963285 26.285976 -9.027310 -0.779996 1.005803 5.403093 27.670708 -6.908826 1.797282 0.000002 0.000006 4.236801 -5.053058 -6.776569 -0.874671 0.000021 -0.000002 9.874405 -40.360602 -27.000766 12.676141 -0.000000 0.000016 2.173896 -3.854513 4.128259 -9.721378 2.681617 -0.377597 5.432502 15.742480 -3.034317 2.513774 5.161495 -0.000004 0.000006 -152.387053 -205.093956 -289.217312 -0.000001 0.000000 -10.869098 -13.742310 3.934402 -4.427540 -0.000010 0.000005 -13.344797 32.302389 22.608713 -5.745982 -2.381885 -1.419588 6.136598 37.316298 20.530447 -10.332812 -4.550499 0.000003 -0.000006 -842.202705 -548.454136 -528.187162 0.000005 -0.000012 -11.106496 318.970599 -43.320103 291.094630 0.000007 -0.000007 -12.874296 -749.496329 16.795241 -71.772140 2.431898 0.469602 -2.489408 155.287534 -43.955256 148.106587 -0.000017 -0.000004 -18.200203 -126.863988 10.771809 132.995176 -0.000002 0.000001 -16.279903 42.367892 15.010218 28.293632 -1.987998 -0.073501 -2.713009 -115.633081 -17.722285 -83.576572 -0.000009 -0.000009 -19.547783 -703.943611 183.687720 26.656562 0.000002 0.000017 -14.881198 505.267615 139.271164 144.948294
